<?xml version="1.0" standalone="no"?><!DOCTYPE svg PUBLIC "-//W3C//DTD SVG 1.1//EN" "http://www.w3.org/Graphics/SVG/1.1/DTD/svg11.dtd"><svg t="1589681470313" class="icon" viewBox="0 0 1024 1024" version="1.1" xmlns="http://www.w3.org/2000/svg" p-id="11169" xmlns:xlink="http://www.w3.org/1999/xlink" width="128" height="128"><defs><style type="text/css"></style></defs><path d="M859.269565 391.791304H164.730435c-66.782609 0-120.208696 51.2-120.208696 113.530435v405.147826C44.521739 972.8 97.947826 1024 164.730435 1024h694.53913c66.782609 0 120.208696-51.2 120.208696-113.530435V505.321739c0-62.330435-53.426087-113.530435-120.208696-113.530435zM912.695652 910.469565c0 26.713043-24.486957 51.2-53.426087 51.2H164.730435c-28.93913 0-53.426087-22.26087-53.426087-51.2V505.321739c0-26.713043 24.486957-51.2 53.426087-51.2h694.53913c28.93913 0 53.426087 22.26087 53.426087 51.2v405.147826z m0 0" fill="#1296db" p-id="11170"></path><path d="M512 594.365217c-64.556522 0-117.982609 51.2-117.982609 113.530435s53.426087 113.530435 117.982609 113.530435 117.982609-51.2 117.982609-113.530435-53.426087-113.530435-117.982609-113.530435z m0 162.504348c-28.93913 0-51.2-22.26087-51.2-48.973913 0-26.713043 22.26087-48.973913 51.2-48.973913 28.93913 0 51.2 22.26087 51.2 48.973913 0 26.713043-22.26087 48.973913-51.2 48.973913z m6.678261-692.313043c146.921739 0 264.904348 113.530435 264.904348 251.547826v75.686956h66.782608v-75.686956C850.365217 142.469565 701.217391 0 518.678261 0 333.913043 0 186.991304 142.469565 186.991304 316.104348h66.782609C253.773913 178.086957 371.756522 64.556522 518.678261 64.556522z m0 0" fill="#1296db" p-id="11171"></path></svg>