<?xml version="1.0" standalone="no"?><!DOCTYPE svg PUBLIC "-//W3C//DTD SVG 1.1//EN" "http://www.w3.org/Graphics/SVG/1.1/DTD/svg11.dtd"><svg t="1589765630281" class="icon" viewBox="0 0 1024 1024" version="1.1" xmlns="http://www.w3.org/2000/svg" p-id="3206" xmlns:xlink="http://www.w3.org/1999/xlink" width="128" height="128"><defs><style type="text/css"></style></defs><path d="M457.6256 539.9552c-40.23296-0.16896-40.23296-0.16896-40.39168 40.0896-0.18432 36.29056 1.152 37.58592 37.6576 37.69344 39.75168 0.12288 39.94112-0.08704 40.09472-37.77536 0.16384-39.8592 0.16384-39.8592-37.36064-40.00768zM456.3456 516.08576c38.2976 0.03584 38.38976-0.08192 38.48704-36.65408 0.12288-40.61696 0.12288-40.61696-40.1152-40.71424-36.48-0.0512-37.11488 0.56832-37.2736 35.21024-0.18944 42.15808-0.18944 42.15808 38.90176 42.15808zM570.07616 539.9552c-38.80448 0.04096-39.01952 0.30208-39.08096 38.95296 0 38.016 1.00864 38.96832 39.56736 38.95296 38.13888 0 38.13888 0 38.08768-39.5264-0.0512-38.41536-0.0512-38.41536-38.57408-38.37952z" fill="#A782B9" p-id="3207"></path><path d="M512.93184 1.86368C230.67136 1.86368 1.86368 230.67136 1.86368 512.92672c0 282.24512 228.80768 511.06816 511.06816 511.06816C795.19232 1024 1024 795.17696 1024 512.93184 1024 230.67648 795.19232 1.86368 512.93184 1.86368z m322.0992 516.60288c-17.664 2.94912-35.34848 5.92896-55.19872 9.2416v27.01824c0 72.0384 0.10752 144.0768-0.13312 216.07424-0.06144 26.3424-15.1296 48.72704-36.7616 49.37728-52.4032 1.50528-104.89344 0.48128-159.89248 0.48128v-123.2384H436.69504v123.84256c-47.13984 0-91.51488 0.14336-135.87968-0.08192-39.04512-0.18432-54.98368-15.81568-55.168-54.51264-0.19968-71.1936-0.09216-142.41792-0.09216-213.59104v-25.46176c-20.75136-3.49696-37.80096-6.33344-54.72768-9.14432v-15.104c22.03136-21.5808 44.05248-43.26912 66.26816-64.69632C332.88192 365.44 408.63232 292.13184 484.6592 219.2384c19.85536-18.92352 35.99872-19.64032 54.65088-1.69472 98.83136 95.01184 197.21216 190.47936 295.72096 285.81888v15.104z" fill="#A782B9" p-id="3208"></path><path d="M531.13344 478.51008c0.03072 36.87936 0.8704 37.6832 38.12864 37.81632 39.17312 0.11776 39.17312 0.11776 39.20384-38.49728 0.02048-39.21408 0.02048-39.21408-35.59424-39.3472-41.18016-0.13312-41.7792 0.47104-41.73824 40.02816z" fill="#A782B9" p-id="3209"></path></svg>