<?xml version="1.0" standalone="no"?><!DOCTYPE svg PUBLIC "-//W3C//DTD SVG 1.1//EN" "http://www.w3.org/Graphics/SVG/1.1/DTD/svg11.dtd"><svg t="1589766047961" class="icon" viewBox="0 0 1024 1024" version="1.1" xmlns="http://www.w3.org/2000/svg" p-id="25271" xmlns:xlink="http://www.w3.org/1999/xlink" width="128" height="128"><defs><style type="text/css"></style></defs><path d="M512 256c-141.056 0-256 96.512-256 215.296a207.36 207.36 0 0 0 103.68 173.056l3.328 2.56a104.704 104.704 0 0 1 28.16 99.84c89.856-60.16 111.872-60.16 120.832-60.16 141.056 0 256-96.512 256-215.296S653.056 256 512 256z m-128 248.32a33.024 33.024 0 1 1 33.28-33.024A33.28 33.28 0 0 1 384 504.32z m128 0a33.024 33.024 0 1 1 33.28-33.024A33.28 33.28 0 0 1 512 504.32z m128 0a33.024 33.024 0 1 1 33.28-33.024A33.28 33.28 0 0 1 640 504.32z" fill="#FFA650" p-id="25272"></path><path d="M512 0a512 512 0 1 0 512 512A512 512 0 0 0 512 0z m0 737.792c-7.936 0-45.312 17.664-128 75.52a32.512 32.512 0 0 1-34.56 2.048 32 32 0 0 1-16.64-30.208 243.712 243.712 0 0 1 4.096-28.928c5.632-32.256 8.448-54.784-7.168-69.888A257.792 257.792 0 0 1 204.8 471.296C204.8 324.352 342.528 204.8 512 204.8s307.2 119.552 307.2 266.496-137.728 266.496-307.2 266.496z" fill="#FFA650" p-id="25273"></path></svg>