<?xml version="1.0" standalone="no"?><!DOCTYPE svg PUBLIC "-//W3C//DTD SVG 1.1//EN" "http://www.w3.org/Graphics/SVG/1.1/DTD/svg11.dtd"><svg t="1589766261655" class="icon" viewBox="0 0 1024 1024" version="1.1" xmlns="http://www.w3.org/2000/svg" p-id="34218" xmlns:xlink="http://www.w3.org/1999/xlink" width="128" height="128"><defs><style type="text/css"></style></defs><path d="M512 512m-512 0a512 512 0 1 0 1024 0 512 512 0 1 0-1024 0Z" fill="#1DC4B1" p-id="34219"></path><path d="M688 836.6V603.2c0-19.8-11.3-22.6-22.6-25.5-55.1-12.7-82.1-11.3-82.1-11.3V341.5c0-25.5-22.5-14.1-22.5-14.1s-263.2 101.9-280 108.9c-17 7-15.5 19.8-15.5 19.8v380.5c0 24 21.2 19.8 21.2 19.8h381.9c22.4 0 19.6-19.8 19.6-19.8zM380.4 707.2h-45.3s-7 1.4-7-8.5v-60.8s-1.4-7 8.5-7h45.3s8.5-1.4 8.5 7v59.4s1.3 9.9-10 9.9z m0-131.7h-45.3s-7 1.4-7-8.5v-60.8s-1.4-7 8.5-7h45.3s8.5-1.4 8.5 7v59.4s1.3 9.9-10 9.9zM621.6 234l-45.3 21.1 49.6 18.5 17 77.7 19.6-77.7 48.2-18.5-48.2-19.8-19.6-77.7zM495.7 262.3l11.3-36.8 35.3-10-35.3-9.8-11.3-36.8-10 35.3-36.7 11.3 35.4 10zM664 403.7l36.8 11.4 11.3 36.6 8.5-36.6 38.2-11.4-36.8-7.1-11.3-35.3-9.9 34z" fill="#FFFFFF" p-id="34220"></path></svg>