<?xml version="1.0" standalone="no"?><!DOCTYPE svg PUBLIC "-//W3C//DTD SVG 1.1//EN" "http://www.w3.org/Graphics/SVG/1.1/DTD/svg11.dtd"><svg t="1589765995488" class="icon" viewBox="0 0 1024 1024" version="1.1" xmlns="http://www.w3.org/2000/svg" p-id="20550" xmlns:xlink="http://www.w3.org/1999/xlink" width="128" height="128"><defs><style type="text/css"></style></defs><path d="M512 512m-512 0a512 512 0 1 0 1024 0 512 512 0 1 0-1024 0Z" fill="#85CEA5" p-id="20551"></path><path d="M366.56 340.352h58.176v87.264h-58.176v-87.264z m116.352 0h58.208v87.264H482.88v-87.264z m-116.352 116.384h58.176V544h-58.176v-87.264z m116.352 0h58.208V544H482.88v-87.264z m-116.352 116.352h58.176v87.296h-58.176v-87.296z m116.352 0h58.208v87.296H482.88v-87.296z m290.912 145.472v-279.264l-116.352-58.208V224H250.176v494.56H192v58.176h640v-58.176h-58.176z m-465.44 0V282.176h290.88v436.384h-290.88z m349.12-273.472l58.176 29.088v244.352h-58.208V445.12z" fill="#FFFFFF" p-id="20552"></path></svg>