<?xml version="1.0" standalone="no"?><!DOCTYPE svg PUBLIC "-//W3C//DTD SVG 1.1//EN" "http://www.w3.org/Graphics/SVG/1.1/DTD/svg11.dtd"><svg t="1589769956600" class="icon" viewBox="0 0 1024 1024" version="1.1" xmlns="http://www.w3.org/2000/svg" p-id="48292" xmlns:xlink="http://www.w3.org/1999/xlink" width="128" height="128"><defs><style type="text/css"></style></defs><path d="M341.333333 896H192A106.794667 106.794667 0 0 1 85.333333 789.333333V640a21.333333 21.333333 0 0 1 42.666667 0v149.333333c0 35.285333 28.714667 64 64 64H341.333333a21.333333 21.333333 0 0 1 0 42.666667z" fill="" p-id="48293"></path><path d="M768 512H213.333333a21.333333 21.333333 0 0 1 0-42.666667h554.666667a21.333333 21.333333 0 0 1 0 42.666667z" fill="" p-id="48294"></path><path d="M789.333333 896H640a21.333333 21.333333 0 0 1 0-42.666667h149.333333c35.285333 0 64-28.714667 64-64V640a21.333333 21.333333 0 0 1 42.666667 0v149.333333c0 58.837333-47.829333 106.666667-106.666667 106.666667z" fill="" p-id="48295"></path><path d="M874.666667 362.666667A21.333333 21.333333 0 0 1 853.333333 341.333333V192c0-35.285333-28.714667-64-64-64H640a21.333333 21.333333 0 0 1 0-42.666667h149.333333C848.170667 85.333333 896 133.205333 896 192V341.333333a21.333333 21.333333 0 0 1-21.333333 21.333334z" fill="" p-id="48296"></path><path d="M106.666667 362.666667A21.333333 21.333333 0 0 1 85.333333 341.333333V192C85.333333 133.205333 133.205333 85.333333 192 85.333333H341.333333a21.333333 21.333333 0 0 1 0 42.666667H192C156.714667 128 128 156.714667 128 192V341.333333a21.333333 21.333333 0 0 1-21.333333 21.333334z" fill="" p-id="48297"></path></svg>