<?xml version="1.0" standalone="no"?><!DOCTYPE svg PUBLIC "-//W3C//DTD SVG 1.1//EN" "http://www.w3.org/Graphics/SVG/1.1/DTD/svg11.dtd"><svg t="1589765586942" class="icon" viewBox="0 0 1024 1024" version="1.1" xmlns="http://www.w3.org/2000/svg" p-id="2337" xmlns:xlink="http://www.w3.org/1999/xlink" width="128" height="128"><defs><style type="text/css"></style></defs><path d="M512 512m-512 0a512 512 0 1 0 1024 0 512 512 0 1 0-1024 0Z" fill="#DF5252" p-id="2338"></path><path d="M576.944356 457.955556V328.590222A21.560889 21.560889 0 0 0 555.246933 307.2H338.864356c-11.821511 0-21.697422 9.580089-21.697423 21.390222v344.723911h-10.820266c-11.958044 0-21.651911 9.636978-21.651911 21.538134s9.693867 21.538133 21.651911 21.538133h411.306666c11.958044 0 21.651911-9.636978 21.651911-21.538133s-9.693867-21.538133-21.651911-21.538134h-10.820266V479.527822a21.686044 21.686044 0 0 0-21.583645-21.583644h-108.305066z m0 43.064888h86.596266v172.282312h-86.596266V501.020444zM382.111289 371.803022h43.292444v43.076267h-43.292444v-43.076267z m0 107.679289h43.292444v43.076267h-43.292444v-43.076267z m0 107.679289h43.292444v43.076267h-43.292444v-43.076267z m86.596267-215.358578H512v43.076267h-43.292444v-43.076267z m0 107.679289H512v43.076267h-43.292444v-43.076267z m0 107.679289H512v43.076267h-43.292444v-43.076267z" fill="#FFFFFF" p-id="2339"></path></svg>