<?xml version="1.0" standalone="no"?><!DOCTYPE svg PUBLIC "-//W3C//DTD SVG 1.1//EN" "http://www.w3.org/Graphics/SVG/1.1/DTD/svg11.dtd"><svg t="1589766200804" class="icon" viewBox="0 0 1024 1024" version="1.1" xmlns="http://www.w3.org/2000/svg" p-id="30772" xmlns:xlink="http://www.w3.org/1999/xlink" width="128" height="128"><defs><style type="text/css"></style></defs><path d="M512 512m-448 0a448 448 0 1 0 896 0 448 448 0 1 0-896 0Z" fill="#64B5F6" p-id="30773"></path><path d="M805.8 282.9c-0.1 0 0 0 0 0-20.8-31.5-59.6-43.2-86.3-25.7 0 0-63.2 43.5-140.6 100.5l-296.1-88.1c-12.1-3.5-20.3 12-10.7 20.2l183.4 162.4C408 490.3 364.2 527 334.2 555.5c-0.9 0.9-2.3 1.3-3.5 0.8L233 520.2c-21.7-8.4-37.5 20.9-18.6 34.6l80.1 58.2 20.1 96.9c4.7 22.8 37.9 20.5 39.2-2.7l7.2-103.8c0.1-1.4 1-2.5 2.3-3 39.1-15.9 89.7-40.3 144-67.9l72.5 234c3.6 12.1 21 11 22.9-1.5l41.6-306.1c83.8-47 149.5-86.7 149.5-86.7 26.8-17.2 32.1-57.4 12-89.3z m-34.4 74.6l-13.9 9-48.1-74.5 13.9-9c19.3-12.5 45.1-6.9 57.6 12.4l2.9 4.4c12.4 19.4 6.9 45.2-12.4 57.7z m34.4-74.6c-0.1-0.1 0 0 0 0z" fill="#FFFFFF" p-id="30774"></path></svg>