<?xml version="1.0" standalone="no"?><!DOCTYPE svg PUBLIC "-//W3C//DTD SVG 1.1//EN" "http://www.w3.org/Graphics/SVG/1.1/DTD/svg11.dtd"><svg t="1589765837153" class="icon" viewBox="0 0 1024 1024" version="1.1" xmlns="http://www.w3.org/2000/svg" p-id="6325" xmlns:xlink="http://www.w3.org/1999/xlink" width="128" height="128"><defs><style type="text/css"></style></defs><path d="M512 512m-512 0a512 512 0 1 0 1024 0 512 512 0 1 0-1024 0Z" fill="#F6D149" p-id="6326"></path><path d="M690.756267 341.333333h-40.925867v-72.0896c0-37.546667-37.387378-64.443733-74.843022-64.443733h-136.192c-37.455644 0-74.513067 30.958933-74.513067 68.5056V341.333333H332.117333C306.005333 341.333333 284.444444 362.951111 284.444444 389.12v292.408889c0 23.893333 18.158933 43.235556 41.995378 46.648889v11.377778c0 6.826667 4.539733 11.377778 11.343645 11.377777h45.397333c6.815289 0 11.355022-4.551111 11.355022-11.377777v-11.377778h226.986667v11.377778c0 6.826667 4.539733 11.377778 11.355022 11.377777h45.397333c6.815289 0 11.343644-4.551111 11.343645-11.377777v-11.377778h2.275555c26.100622 0 47.672889-21.617778 47.672889-47.786667V389.12c-1.149156-26.168889-22.710044-47.786667-48.810666-47.786667zM432.355556 648.533333h-34.133334V420.977778h34.133334v227.555555z m91.022222 0h-34.133334V420.977778h34.133334v227.555555z m91.022222 0h-34.133333V420.977778h34.133333v227.555555z m-11.377778-307.2H409.6v-68.266666c0-19.342222 13.971911-34.133333 32.233244-34.133334h128.944356C589.050311 238.933333 603.022222 253.724444 603.022222 273.066667v68.266666z" fill="#FFFFFF" p-id="6327"></path></svg>