<?xml version="1.0" standalone="no"?><!DOCTYPE svg PUBLIC "-//W3C//DTD SVG 1.1//EN" "http://www.w3.org/Graphics/SVG/1.1/DTD/svg11.dtd"><svg t="1589769924008" class="icon" viewBox="0 0 1024 1024" version="1.1" xmlns="http://www.w3.org/2000/svg" p-id="46350" xmlns:xlink="http://www.w3.org/1999/xlink" width="128" height="128"><defs><style type="text/css"></style></defs><path d="M760.8 887.2H262.4c-45.6 0-82.4-36.8-82.4-82.4V218.4c0-45.6 36.8-82.4 82.4-82.4h498.4c45.6 0 82.4 36.8 82.4 82.4v586.4c0 45.6-36.8 82.4-82.4 82.4zM262.4 184c-18.4 0-34.4 16-34.4 34.4v586.4c0 19.2 15.2 34.4 34.4 34.4h498.4c19.2 0 34.4-15.2 34.4-34.4V218.4c0-19.2-15.2-34.4-34.4-34.4H262.4z" fill="#999999" p-id="46351"></path><path d="M664 460.8H360c-31.2 0-56-24.8-56-56V306.4c0-31.2 24.8-56 56-56h304c31.2 0 56 24.8 56 56v98.4c0 31.2-24.8 56-56 56zM360 298.4c-4 0-8 2.4-8 8v98.4c0 4 4 8 8 8h304c4 0 8-4 8-8V306.4c0-4-4-8-8-8H360z" fill="#999999" p-id="46352"></path><path d="M360 580m-48 0a48 48 0 1 0 96 0 48 48 0 1 0-96 0Z" fill="#999999" p-id="46353"></path><path d="M512 580m-48 0a48 48 0 1 0 96 0 48 48 0 1 0-96 0Z" fill="#999999" p-id="46354"></path><path d="M664 580m-48 0a48 48 0 1 0 96 0 48 48 0 1 0-96 0Z" fill="#999999" p-id="46355"></path><path d="M360 724m-48 0a48 48 0 1 0 96 0 48 48 0 1 0-96 0Z" fill="#999999" p-id="46356"></path><path d="M512 724m-48 0a48 48 0 1 0 96 0 48 48 0 1 0-96 0Z" fill="#999999" p-id="46357"></path><path d="M664 724m-48 0a48 48 0 1 0 96 0 48 48 0 1 0-96 0Z" fill="#999999" p-id="46358"></path></svg>