<?xml version="1.0" standalone="no"?><!DOCTYPE svg PUBLIC "-//W3C//DTD SVG 1.1//EN" "http://www.w3.org/Graphics/SVG/1.1/DTD/svg11.dtd"><svg t="1589766365275" class="icon" viewBox="0 0 1024 1024" version="1.1" xmlns="http://www.w3.org/2000/svg" p-id="39685" xmlns:xlink="http://www.w3.org/1999/xlink" width="128" height="128"><defs><style type="text/css"></style></defs><path d="M0 512c0 282.775704 229.224296 512 512 512s512-229.224296 512-512S794.775704 0 512 0 0 229.224296 0 512z" fill="#7ED16F" p-id="39686"></path><path d="M771.375407 465.540741l-220.16-174.516148-0.530963-0.37926a66.066963 66.066963 0 0 0-77.406814 0l-0.246519 0.18963-220.406518 174.705778c-7.205926 5.688889-8.154074 15.872-2.180741 22.717629 5.992296 6.826667 16.687407 7.774815 23.893333 2.048l43.406222-34.398814v193.460148c0 39.272296 33.564444 71.224889 74.846815 71.224889h245.741037c41.263407 0 74.846815-31.952593 74.846815-71.224889V461.368889l36.503704 28.937481c7.205926 5.707852 17.882074 4.778667 23.87437-2.066963a15.587556 15.587556 0 0 0-2.180741-22.698666z m-153.941333 160.426666l-49.114074 32.711112a4.096 4.096 0 0 1-4.077037 0.265481 3.716741 3.716741 0 0 1-2.104889-3.318519v-16.649481h-89.050074c-50.194963 0-91.060148-38.874074-91.060148-86.641778 0-7.111111 0.910222-14.184296 2.730667-21.086815 2.332444-8.912593 11.832889-14.317037 21.200592-12.079407 9.367704 2.218667 15.056593 11.245037 12.705185 20.15763a51.38963 51.38963 0 0 0 10.202074 45.814518 57.211259 57.211259 0 0 0 44.22163 20.555852h89.050074v-15.530667c0-1.384296 0.815407-2.654815 2.104889-3.299555a4.096 4.096 0 0 1 4.058074 0.246518l49.114074 32.730074a3.678815 3.678815 0 0 1 1.687704 3.053037 3.678815 3.678815 0 0 1-1.668741 3.053037z m27.932445-46.648888c-2.332444 8.912593-11.832889 14.317037-21.200593 12.09837-9.367704-2.23763-15.056593-11.264-12.705185-20.176593a51.427556 51.427556 0 0 0-10.221037-45.795555 57.230222 57.230222 0 0 0-44.183704-20.574815h-89.069037v15.54963c0 1.384296-0.796444 2.654815-2.085926 3.299555a4.096 4.096 0 0 1-4.077037-0.246518l-49.095111-32.711112a3.678815 3.678815 0 0 1-1.668741-3.072c0-1.21363 0.625778-2.351407 1.668741-3.034074l49.114074-32.749037a4.096 4.096 0 0 1 4.077037-0.246518 3.716741 3.716741 0 0 1 2.085926 3.318518v16.649482h89.031111c50.213926 0 91.060148 38.874074 91.060148 86.641778 0 7.092148-0.910222 14.165333-2.730666 21.048889zM759.789037 274.128593V241.398519h-36.882963l26.548148-28.444445L727.703704 189.62963 697.837037 221.771852 667.875556 189.62963l-21.655704 23.324444 26.453333 28.444445h-36.788148v32.730074h46.743704v16.365037H654.411852v32.843851h28.216889V348.918519h30.34074v-25.6h28.197926v-32.805926h-28.216888v-16.384h46.838518z" fill="#FFFFFF" p-id="39687"></path></svg>