<?xml version="1.0" standalone="no"?><!DOCTYPE svg PUBLIC "-//W3C//DTD SVG 1.1//EN" "http://www.w3.org/Graphics/SVG/1.1/DTD/svg11.dtd"><svg t="1589681652064" class="icon" viewBox="0 0 1024 1024" version="1.1" xmlns="http://www.w3.org/2000/svg" p-id="12040" xmlns:xlink="http://www.w3.org/1999/xlink" width="128" height="128"><defs><style type="text/css"></style></defs><path d="M670.7 367.5c10.3 0 20.5 0.8 30.6 1.9-27.5-128-164.3-223-320.4-223-174.5 0-317.5 119-317.5 270 0 87.2 47.6 158.8 127 214.3l-31.8 95.5 111-55.7c39.7 7.9 71.6 15.9 111.2 15.9 10 0 19.8-0.5 29.6-1.3-6.2-21.2-9.8-43.5-9.8-66.5 0.2-138.6 119.3-251.1 270.1-251.1zM500 281.4c23.9 0 39.7 15.7 39.7 39.6 0 23.8-15.8 39.7-39.7 39.7-23.8 0-47.7-15.9-47.7-39.7 0-23.9 23.9-39.6 47.7-39.6z m-222.2 79.4c-23.8 0-47.8-15.9-47.8-39.7 0-23.9 24-39.6 47.8-39.6 23.8 0 39.6 15.7 39.6 39.6 0 23.7-15.8 39.7-39.6 39.7z" fill="#BFBFBF" p-id="12041"></path><path d="M960.4 614.9c0-126.9-127-230.4-269.7-230.4-151 0-270 103.5-270 230.4 0 127.1 119 230.4 270 230.4 31.6 0 63.5-8 95.3-15.9l87.1 47.7-23.9-79.3c63.8-47.9 111.2-111.3 111.2-182.9z m-357.2-39.7c-15.8 0-31.8-15.7-31.8-31.8 0-15.8 15.9-31.7 31.8-31.7 24 0 39.7 15.9 39.7 31.7 0.1 16.1-15.7 31.8-39.7 31.8z m174.7 0c-15.7 0-31.5-15.7-31.5-31.8 0-15.8 15.8-31.7 31.5-31.7 23.8 0 39.7 15.9 39.7 31.7 0 16.1-15.9 31.8-39.7 31.8z" fill="#BFBFBF" p-id="12042"></path></svg>