<?xml version="1.0" standalone="no"?><!DOCTYPE svg PUBLIC "-//W3C//DTD SVG 1.1//EN" "http://www.w3.org/Graphics/SVG/1.1/DTD/svg11.dtd"><svg t="1589681669361" class="icon" viewBox="0 0 1024 1024" version="1.1" xmlns="http://www.w3.org/2000/svg" p-id="12405" xmlns:xlink="http://www.w3.org/1999/xlink" width="128" height="128"><defs><style type="text/css"></style></defs><path d="M356.65540741 509.51534373l207.64393836-207.12612265L770.90765392 509.51534373v414.25224771H356.65540741z" fill="#1afa29" p-id="12406"></path><path d="M270.59450311 864.01170401h482.81099378v-268.90148976a30.03328831 30.03328831 0 0 1 30.13685096-29.87794251 30.03328831 30.03328831 0 0 1 30.1886329 29.87794251v298.7794335a30.03328831 30.03328831 0 0 1-30.1886329 29.87794369H240.40587022a30.03328831 30.03328831 0 0 1-30.13685097-29.87794369v-298.7794335a30.03328831 30.03328831 0 0 1 30.13685097-29.87794251 30.03328831 30.03328831 0 0 1 30.18863289 29.87794251v268.90148976zM512 167.44655083l-362.67784177 359.10491736a30.39575822 30.39575822 0 0 1-42.71976296 0 29.67081718 29.67081718 0 0 1 0-42.25372918l384.01183289-380.23178197a30.39575822 30.39575822 0 0 1 42.71976295 0l384.06361362 380.23178197a29.72259911 29.72259911 0 0 1 0 42.35729182 30.44754015 30.44754015 0 0 1-42.71976296 0L512 167.49833277v-0.05178194z" fill="#1afa29" p-id="12407"></path></svg>